/* XPM */
static char *colllectible[] = {
/* columns rows colors chars-per-pixel */
"64 64 10 1 ",
"  c #90625D",
". c #AA7959",
"X c #B09643",
"o c #BFA954",
"O c #C49A6C",
"+ c #D4C169",
"@ c #EAE178",
"# c #DCB98A",
"$ c #F4F4A0",
"% c #78A158",
/* pixels */
"%%%%    ++++++++                                ++++++++    %%%%",
"%%%%    ++++++++                                ++++++++    %%%%",
"%%%%    ++++++++                                ++++++++    %%%%",
"%%%%    ++++++++                                ++++++++    %%%%",
"%%%%    ++++++++                                ++++++++    %%%%",
"    @@@@@@@@@@@@OOOO########################OOOO@@@@@@@@@@@@    ",
"    @@@@@@@@@@@@OOOO########################OOOO@@@@@@@@@@@@    ",
"    @@@@@@@@@@@@OOOO########################OOOO@@@@@@@@@@@@    ",
"    @@@@@@@@@@@@OOOO########################OOOO@@@@@@@@@@@@    ",
"    @@@@@@@@@@@@OOOO########################OOOO@@@@@@@@@@@@    ",
"    @@@@@@@@OOOOOOOOOOOO################OOOOOOOOOOOO@@@@@@@@    ",
"    @@@@@@@@OOOOOOOOOOOO################OOOOOOOOOOOO@@@@@@@@    ",
"    @@@@@@@@OOOOOOOOOOOO################OOOOOOOOOOOO@@@@@@@@    ",
"    @@@@@@@@OOOOOOOOOOOO################OOOOOOOOOOOO@@@@@@@@    ",
"    @@@@@@@@OOOOOOOOOOOO################OOOOOOOOOOOO@@@@@@@@    ",
"    @@@@@@@@OOOOOOOOOOOOOOOOOOOOOOOOOOOOOOOOOOOOOOOO@@@@@@@@    ",
"    @@@@@@@@OOOOOOOOOOOOOOOOOOOOOOOOOOOOOOOOOOOOOOOO@@@@@@@@    ",
"    @@@@@@@@OOOOOOOOOOOOOOOOOOOOOOOOOOOOOOOOOOOOOOOO@@@@@@@@    ",
"    @@@@@@@@OOOOOOOOOOOOOOOOOOOOOOOOOOOOOOOOOOOOOOOO@@@@@@@@    ",
"    @@@@@@@@OOOOOOOOOOOOOOOOOOOOOOOOOOOOOOOOOOOOOOOO@@@@@@@@    ",
"    @@@@@@@@OOOOOOOOOOOOOOOOOOOOOOOOOOOOOOOOOOOOOOOO@@@@@@@@    ",
"    @@@@@@@@OOOOOOOOOOOOOOOOOOOOOOOOOOOOOOOOOOOOOOOO@@@@@@@@    ",
"    @@@@@@@@OOOOOOOOOOOOOOOOOOOOOOOOOOOOOOOOOOOOOOOO@@@@@@@@    ",
"    @@@@@@@@OOOOOOOOOOOOOOOOOOOOOOOOOOOOOOOOOOOOOOOO@@@@@@@@    ",
"    @@@@@@@@OOOOOOOOOOOOOOOOOOOOOOOOOOOOOOOOOOOOOOOO@@@@@@@@    ",
"    $$$$@@@@@@@@@@@@@@@@@@@@@@@@@@@@@@@@@@@@@@@@@@@@@@@@$$$$    ",
"    $$$$@@@@@@@@@@@@@@@@@@@@@@@@@@@@@@@@@@@@@@@@@@@@@@@@$$$$    ",
"    $$$$@@@@@@@@@@@@@@@@@@@@@@@@@@@@@@@@@@@@@@@@@@@@@@@@$$$$    ",
"    $$$$@@@@@@@@@@@@@@@@@@@@@@@@@@@@@@@@@@@@@@@@@@@@@@@@$$$$    ",
"    $$$$@@@@@@@@@@@@@@@@@@@@@@@@@@@@@@@@@@@@@@@@@@@@@@@@$$$$    ",
"    XXXX$$$$$$$$$$$$$$$$$$$$$$$$$$$$$$$$$$$$$$$$$$$$$$$$XXXX    ",
"    XXXX$$$$$$$$$$$$$$$$$$$$$$$$$$$$$$$$$$$$$$$$$$$$$$$$XXXX    ",
"    XXXX$$$$$$$$$$$$$$$$$$$$$$$$$$$$$$$$$$$$$$$$$$$$$$$$XXXX    ",
"    XXXX$$$$$$$$$$$$$$$$$$$$$$$$$$$$$$$$$$$$$$$$$$$$$$$$XXXX    ",
"    ooooXXXX                @@@@++++                XXXXoooo    ",
"    ooooXXXX                @@@@++++                XXXXoooo    ",
"    ooooXXXX                @@@@++++                XXXXoooo    ",
"    ooooXXXX                @@@@++++                XXXXoooo    ",
"    ooooXXXX                @@@@++++                XXXXoooo    ",
"    oooooooo................++++++++................oooooooo    ",
"    oooooooo................++++++++................oooooooo    ",
"    oooooooo................++++++++................oooooooo    ",
"    oooooooo................++++++++................oooooooo    ",
"    oooooooo................++++++++................oooooooo    ",
"    ++++oooo........................................oooo++++    ",
"    ++++oooo........................................oooo++++    ",
"    ++++oooo........................................oooo++++    ",
"    ++++oooo........................................oooo++++    ",
"    ++++oooo........................................oooo++++    ",
"    ++++++++........................................++++++++    ",
"    ++++++++........................................++++++++    ",
"    ++++++++........................................++++++++    ",
"    ++++++++........................................++++++++    ",
"    ++++++++........................................++++++++    ",
"%%%%    ++++++++++++++++++++++++++++++++++++++++++++++++    %%%%",
"%%%%    ++++++++++++++++++++++++++++++++++++++++++++++++    %%%%",
"%%%%    ++++++++++++++++++++++++++++++++++++++++++++++++    %%%%",
"%%%%    ++++++++++++++++++++++++++++++++++++++++++++++++    %%%%",
"%%%%    ++++++++++++++++++++++++++++++++++++++++++++++++    %%%%",
"%%%%%%%%                                                %%%%%%%%",
"%%%%%%%%                                                %%%%%%%%",
"%%%%%%%%                                                %%%%%%%%",
"%%%%%%%%                                                %%%%%%%%",
"%%%%%%%%                                                %%%%%%%%"
};
