/* XPM */
static char *exit1[] = {
/* columns rows colors chars-per-pixel */
"64 64 7 1 ",
"  c #754C60",
". c #90625D",
"X c #AA7959",
"o c #C49A6C",
"O c #DCB98A",
"+ c #E8CFA6",
"@ c #C0D470",
/* pixels */
"        @@@@@@@@@@@@@@@@@@@@        @@@@@@@@@@@@@@@@@@@@        ",
"        @@@@@@@@@@@@@@@@@@@@        @@@@@@@@@@@@@@@@@@@@        ",
"        @@@@@@@@@@@@@@@@@@@@        @@@@@@@@@@@@@@@@@@@@        ",
"        @@@@@@@@@@@@@@@@@@@@        @@@@@@@@@@@@@@@@@@@@        ",
"oooooooo    @@@@@@@@        oooooooo    @@@@@@@@@@@@    oooooooo",
"oooooooo    @@@@@@@@        oooooooo    @@@@@@@@@@@@    oooooooo",
"oooooooo    @@@@@@@@        oooooooo    @@@@@@@@@@@@    oooooooo",
"oooooooo    @@@@@@@@        oooooooo    @@@@@@@@@@@@    oooooooo",
"oooooooo            oooooooo........    @@@@@@@@@@@@    oooooooo",
"oooooooo            oooooooo........    @@@@@@@@@@@@    oooooooo",
"oooooooo            oooooooo........    @@@@@@@@@@@@    oooooooo",
"oooooooo            oooooooo........    @@@@@@@@@@@@    oooooooo",
"oooooooo    oooooooo................    @@@@@@@@@@@@    oooooooo",
"oooooooo    oooooooo................    @@@@@@@@@@@@    oooooooo",
"oooooooo    oooooooo................    @@@@@@@@@@@@    oooooooo",
"oooooooo    oooooooo................    @@@@@@@@@@@@    oooooooo",
"OOOOOOOO    ................XXXX....    @@@@@@@@@@@@    OOOOOOOO",
"OOOOOOOO    ................XXXX....    @@@@@@@@@@@@    OOOOOOOO",
"OOOOOOOO    ................XXXX....    @@@@@@@@@@@@    OOOOOOOO",
"OOOOOOOO    ................XXXX....    @@@@@@@@@@@@    OOOOOOOO",
"XXXXXXXX    ................XXXX....    @@@@@@@@@@@@    XXXXXXXX",
"XXXXXXXX    ................XXXX....    @@@@@@@@@@@@    XXXXXXXX",
"XXXXXXXX    ................XXXX....    @@@@@@@@@@@@    XXXXXXXX",
"XXXXXXXX    ................XXXX....    @@@@@@@@@@@@    XXXXXXXX",
"XXXXXXXX    ....XXXX........XXXX....    @@@@@@@@@@@@    XXXXXXXX",
"XXXXXXXX    ....XXXX........XXXX....    @@@@@@@@@@@@    XXXXXXXX",
"XXXXXXXX    ....XXXX........XXXX....    @@@@@@@@@@@@    XXXXXXXX",
"XXXXXXXX    ....XXXX........XXXX....    @@@@@@@@@@@@    XXXXXXXX",
"........    ....XXXX........XXXX++++    @@@@@@@@@@@@    ........",
"........    ....XXXX........XXXX++++    @@@@@@@@@@@@    ........",
"........    ....XXXX........XXXX++++    @@@@@@@@@@@@    ........",
"........    ....XXXX........XXXX++++    @@@@@@@@@@@@    ........",
"XXXXXXXX    ....XXXX........++++....    @@@@@@@@@@@@    XXXXXXXX",
"XXXXXXXX    ....XXXX........++++....    @@@@@@@@@@@@    XXXXXXXX",
"XXXXXXXX    ....XXXX........++++....    @@@@@@@@@@@@    XXXXXXXX",
"XXXXXXXX    ....XXXX........++++....    @@@@@@@@@@@@    XXXXXXXX",
"XXXXXXXX    ....XXXX........XXXX....    @@@@@@@@@@@@    XXXXXXXX",
"XXXXXXXX    ....XXXX........XXXX....    @@@@@@@@@@@@    XXXXXXXX",
"XXXXXXXX    ....XXXX........XXXX....    @@@@@@@@@@@@    XXXXXXXX",
"XXXXXXXX    ....XXXX........XXXX....    @@@@@@@@@@@@    XXXXXXXX",
"XXXXXXXX    ....XXXX........XXXX....    @@@@@@@@@@@@    XXXXXXXX",
"XXXXXXXX    ....XXXX........XXXX....    @@@@@@@@@@@@    XXXXXXXX",
"XXXXXXXX    ....XXXX........XXXX....    @@@@@@@@@@@@    XXXXXXXX",
"XXXXXXXX    ....XXXX........XXXX....    @@@@@@@@@@@@    XXXXXXXX",
"........    ....XXXX................    @@@@@@@@@@@@    ........",
"........    ....XXXX................    @@@@@@@@@@@@    ........",
"........    ....XXXX................    @@@@@@@@@@@@    ........",
"........    ....XXXX................    @@@@@@@@@@@@    ........",
"XXXXXXXX    ....XXXX................    @@@@@@@@@@@@    XXXXXXXX",
"XXXXXXXX    ....XXXX................    @@@@@@@@@@@@    XXXXXXXX",
"XXXXXXXX    ....XXXX................    @@@@@@@@@@@@    XXXXXXXX",
"XXXXXXXX    ....XXXX................    @@@@@@@@@@@@    XXXXXXXX",
"XXXXXXXX    ................        @@@@@@@@@@@@@@@@    XXXXXXXX",
"XXXXXXXX    ................        @@@@@@@@@@@@@@@@    XXXXXXXX",
"XXXXXXXX    ................        @@@@@@@@@@@@@@@@    XXXXXXXX",
"XXXXXXXX    ................        @@@@@@@@@@@@@@@@    XXXXXXXX",
"XXXXXXXX    ........        @@@@@@@@@@@@@@@@@@@@@@@@    XXXXXXXX",
"XXXXXXXX    ........        @@@@@@@@@@@@@@@@@@@@@@@@    XXXXXXXX",
"XXXXXXXX    ........        @@@@@@@@@@@@@@@@@@@@@@@@    XXXXXXXX",
"XXXXXXXX    ........        @@@@@@@@@@@@@@@@@@@@@@@@    XXXXXXXX",
"                    @@@@@@@@@@@@@@@@@@@@@@@@@@@@@@@@            ",
"                    @@@@@@@@@@@@@@@@@@@@@@@@@@@@@@@@            ",
"                    @@@@@@@@@@@@@@@@@@@@@@@@@@@@@@@@            ",
"                    @@@@@@@@@@@@@@@@@@@@@@@@@@@@@@@@            "
};
