/* XPM */
static char * floor_xpm[] = {
"64 64 3 1",
" 	c #78A158",
".	c #A4C263",
"+	c #C0D470",
"  ..........................................................    ",
"  ..........................................................    ",
"..................++......................++++++..............  ",
"..................++......................++++++..............  ",
"......++++++++++++++++++++++++++++++++++..++++++++++++..++....  ",
"......++++++++++++++++++++++++++++++++++..++++++++++++..++....  ",
"....++++++++++++++++++++++++++++..++++++++++++++++++++++++++....",
"....++++++++++++++++++++++++++++..++++++++++++++++++++++++++....",
"....++++++++++++++++++++++++++++++++++++++++++++++++++++++++....",
"....++++++++++++++++++++++++++++++++++++++++++++++++++++++++....",
"....++++++++++++++++++++++++++++++++++++++++++++..++++++++++....",
"....++++++++++++++++++++++++++++++++++++++++++++..++++++++++....",
"..++++++++++++++++++++++++++++++++++++++++++++++++++++++..++....",
"..++++++++++++++++++++++++++++++++++++++++++++++++++++++..++....",
"..++++++++++++++++++++++++++++++++++++++++++++++++++++++++++....",
"..++++++++++++++++++++++++++++++++++++++++++++++++++++++++++....",
"++++++++++++++++++++++++++++++++++++++++++++++++++++++++++++++..",
"++++++++++++++++++++++++++++++++++++++++++++++++++++++++++++++..",
"++++++++++++++++++++++++++++++++++++++++++++++++++++++++++++++..",
"++++++++++++++++++++++++++++++++++++++++++++++++++++++++++++++..",
"..++++++++++++++++++++++++++++++++++++++++++++++++++++++++++++..",
"..++++++++++++++++++++++++++++++++++++++++++++++++++++++++++++..",
"++++++++++++++++++++++++++++++++++++++++++++++++++++++++++++++..",
"++++++++++++++++++++++++++++++++++++++++++++++++++++++++++++++..",
"..++++++++..++++++++++++++++++++++++++++++++++++++++++++++++....",
"..++++++++..++++++++++++++++++++++++++++++++++++++++++++++++....",
"....++++++++++++++++++++++++++++++++++++++++++++++++++++++++....",
"....++++++++++++++++++++++++++++++++++++++++++++++++++++++++....",
"..++++++++++++++++++++++++++++++++++++++++++++++++++++++++++....",
"..++++++++++++++++++++++++++++++++++++++++++++++++++++++++++....",
"..++..++++++++++++++++++++++++++++++++++++++++++++++++++++++....",
"..++..++++++++++++++++++++++++++++++++++++++++++++++++++++++....",
"..++++++++++++++++++++++++++++++++++++++++++++++++++++++++++....",
"..++++++++++++++++++++++++++++++++++++++++++++++++++++++++++....",
"..++++++++++++++++++++++++++++++++++++++++++++++++++++++++++....",
"..++++++++++++++++++++++++++++++++++++++++++++++++++++++++++....",
"..++++++++++++++++++++++++++++++++++++++++++++++++..++++++++....",
"..++++++++++++++++++++++++++++++++++++++++++++++++..++++++++....",
"....++..++++++++++++++++++++++++++++++++++++++++++++++++++++....",
"....++..++++++++++++++++++++++++++++++++++++++++++++++++++++....",
"++++++++++++++++++++++++++++++++++++++++++++++++++++++++++++++..",
"++++++++++++++++++++++++++++++++++++++++++++++++++++++++++++++..",
"..++++++++++++++++++++++++++++++++++++++++++++++++++++++++++++..",
"..++++++++++++++++++++++++++++++++++++++++++++++++++++++++++++..",
"++++++++++++++++++++++++++++++++++++++++++++++++++++++++++++....",
"++++++++++++++++++++++++++++++++++++++++++++++++++++++++++++....",
"..++++++++++++++++++++++++++++++++++++++++++++++++++++++++++....",
"..++++++++++++++++++++++++++++++++++++++++++++++++++++++++++....",
"....++++++++++++++++++++++++++++++++++++++++++++++++..++++++....",
"....++++++++++++++++++++++++++++++++++++++++++++++++..++++++....",
"....++++++++++++++++++++++++++++++++++++++++++++++++++++++++....",
"....++++++++++++++++++++++++++++++++++++++++++++++++++++++++....",
"..++++++++++++++++++++++++++++++++++++++++++++++++++++++++++....",
"..++++++++++++++++++++++++++++++++++++++++++++++++++++++++++....",
"..++++++++++++++++++++++++++++++++++++..++++++++++++++++++++....",
"..++++++++++++++++++++++++++++++++++++..++++++++++++++++++++....",
"....++++++++++++++++++++++++++++++++++++++++++++++++++..++++....",
"....++++++++++++++++++++++++++++++++++++++++++++++++++..++++....",
"....++++++..++++++++++++++++..++++++++++++++++++++++++++++++..  ",
"....++++++..++++++++++++++++..++++++++++++++++++++++++++++++..  ",
"................++++++......++++..........++++++..++..........  ",
"................++++++......++++..........++++++..++..........  ",
"  ..........................................................    ",
"  ..........................................................    "};
