/* XPM */
static char * player_xpm[] = {
"64 64 9 1",
" 	c #C0D470",
".	c #5C4E92",
"+	c #F3F2C0",
"@	c #E8B5AC",
"#	c #DDD5DE",
"$	c #F3D8C5",
"%	c #766DAA",
"&	c #EAE178",
";	c #A4C263",
";;;;;;;;;..............                  ..............;;;;;;;;;",
";;;;;;   ..............                  ..............   ;;;;;;",
";;;      ..............                  ..............      ;;;",
"         ..............                  ..............         ",
"     ....++++++++++++++....          ....++++++++++++++....     ",
"     ....++++++++++++++....          ....++++++++++++++....     ",
"     ....++++++++++++++....          ....++++++++++++++....     ",
"     ....++++++++++++++....          ....++++++++++++++....     ",
"     ....@@@@@@@@@+++++..................+++++@@@@@@@@@....     ",
"     ....@@@@@@@@@+++++..................+++++@@@@@@@@@....     ",
"     ....@@@@@@@@@+++++..................+++++@@@@@@@@@....     ",
"     ....@@@@@@@@@+++++..................+++++@@@@@@@@@....     ",
"     ....@@@@@@@@@+++++##################+++++@@@@@@@@@....     ",
"     ....@@@@@@@@@+++++##################+++++@@@@@@@@@....     ",
"     ....@@@@@@@@@+++++##################+++++@@@@@@@@@....     ",
"     ....@@@@@@@@@+++++##################+++++@@@@@@@@@....     ",
"     ....++++++++++++++##################++++++++++++++....     ",
"     ....++++++++++++++##################++++++++++++++....     ",
"     ....++++++++++++++##################++++++++++++++....     ",
"     ....++++++++++++++##################++++++++++++++....     ",
"     ....++++++++++++++##################++++++++++++++....     ",
"     ....++++++++++++++##################++++++++++++++....     ",
"     ....++++++++++++++##################++++++++++++++....     ",
"     ....++++++++++++++##################++++++++++++++....     ",
".........++++++++++++++++++++++++++++++++++++++++++++++.........",
".........++++++++++++++++++++++++++++++++++++++++++++++.........",
".........++++++++++++++++++++++++++++++++++++++++++++++.........",
".........++++++++++++++++++++++++++++++++++++++++++++++.........",
"     ....+++++....++++++++++++++++++++++++++++....+++++....     ",
"     ....+++++....++++++++++++++++++++++++++++....+++++....     ",
"     ....+++++....++++++++++++++++++++++++++++....+++++....     ",
"     ....+++++....++++++++++++++++++++++++++++....+++++....     ",
".........++++++++++++++++++++++++++++++++++++++++++++++.........",
".........++++++++++++++++++++++++++++++++++++++++++++++.........",
".........++++++++++++++++++++++++++++++++++++++++++++++.........",
".........++++++++++++++++++++++++++++++++++++++++++++++.........",
"     ....$$$$$$$$$++++++++++++++++++++++++++++$$$$$$$$$....     ",
"     ....$$$$$$$$$++++++++++++++++++++++++++++$$$$$$$$$....     ",
"     ....$$$$$$$$$++++++++++++++++++++++++++++$$$$$$$$$....     ",
"     ....$$$$$$$$$++++++++++++++++++++++++++++$$$$$$$$$....     ",
"         .........%%%%%%%%%%%%%%%%%%%%%%%%%%%%.........         ",
"         .........%%%%%%%%%%%%%%%%%%%%%%%%%%%%.........         ",
"         .........%%%%%%%%%%%%%%%%%%%%%%%%%%%%.........         ",
"         .........%%%%%%%%%%%%%%%%%%%%%%%%%%%%.........         ",
"     ....#####++++%%%%%%%%%&&&&&+++++%%%%%%%%%++++#####....     ",
"     ....#####++++%%%%%%%%%&&&&&+++++%%%%%%%%%++++#####....     ",
"     ....#####++++%%%%%%%%%&&&&&+++++%%%%%%%%%++++#####....     ",
"     ....#####++++%%%%%%%%%&&&&&+++++%%%%%%%%%++++#####....     ",
"     ....#####+++++++++++++&&&&&&&&&&+++++++++++++#####....     ",
"     ....#####+++++++++++++&&&&&&&&&&+++++++++++++#####....     ",
"     ....#####+++++++++++++&&&&&&&&&&+++++++++++++#####....     ",
"     ....#####+++++++++++++&&&&&&&&&&+++++++++++++#####....     ",
"         .........++++++++++++++++++++++++++++.........         ",
"         .........++++++++++++++++++++++++++++.........         ",
"         .........++++++++++++++++++++++++++++.........         ",
"         .........++++++++++++++++++++++++++++.........         ",
"              ....#########..........#########....              ",
"              ....#########..........#########....              ",
"              ....#########..........#########....              ",
"              ....#########..........#########....              ",
";;                .........          .........                ;;",
";;;;              .........          .........              ;;;;",
";;;;;;;           .........          .........           ;;;;;;;",
";;;;;;;;;;;;;;;;;;.........;;;;;;;;;;.........;;;;;;;;;;;;;;;;;;"};
