/* XPM */
static char *wall1[] = {
/* columns rows colors chars-per-pixel */
"64 64 16 1 ",
"  c #5F7A79",
". c #90625D",
"X c #AA7959",
"o c #8A4A70",
"O c #A35B70",
"+ c #AF6776",
"@ c #BD757E",
"# c #6E967C",
"$ c #B68962",
"% c #C49A6C",
"& c #97BB8E",
"* c #D99A9A",
"= c #E8B5AC",
"- c #AED499",
"; c #C2E09A",
": c #C0D470",
/* pixels */
"::::::::::::::::::::                           :::::::::::::::::",
"::::::::::::::::::::                           :::::::::::::::::",
":::::::::::::::     &&&------------------&&&&&&  :::::::::::::::",
":::::::::::::::     &&&------------------&&&&&&  :::::::::::::::",
":::::::::      &&---------;;;;;;;;;---;;;;;;---&&      :::::::::",
":::::::::      &&---------;;;;;;;;;---;;;;;;---&&      :::::::::",
":::::::::      &&---------;;;;;;;;;---;;;;;;---&&      :::::::::",
"::::::   &&&--------------;;;;;;;;;---;;;;;;-----&&&&&&   ::::::",
"::::::   &&&--------------;;;;;;;;;---;;;;;;-----&&&&&&   ::::::",
":::   &&&---;;;;;;;;---;;;;;;;;;-----------------------&&&   :::",
":::   &&&---;;;;;;;;---;;;;;;;;;-----------------------&&&   :::",
"   &&&&&&---;;;;;;;;;;;;;;;;;---------;;;;;;;;;--------&&&&&&   ",
"   &&&&&&---;;;;;;;;;;;;;;;;;---------;;;;;;;;;--------&&&&&&   ",
"   --------------;;;;;;---------------;;;++++++;;+++OOO&&&&&&   ",
"   --------------;;;;;;---------------;;;++++++;;+++OOO&&&&&&   ",
"&&&-----------------------------------+++===***++@@@@@@ooo---&&&",
"&&&-----------------------------------+++===***++@@@@@@ooo---&&&",
"&&&-----------------------------------+++===***++@@@@@@ooo---&&&",
"&&&-----------------------------------OOO***@@@@@@@@@@@ooo---&&&",
"&&&-----------------------------------OOO***@@@@@@@@@@@ooo---&&&",
"&&&&&&++++++---++OOO&&&------------------OOO@@@++@@@ooo&&&&&&&&&",
"&&&&&&++++++---++OOO&&&------------------OOO@@@++@@@ooo&&&&&&&&&",
"&&&+++===***+++@@@@@ooo------------------&&&oooooooo---&&&&&&   ",
"&&&+++===***+++@@@@@ooo------------------&&&oooooooo---&&&&&&   ",
"&&&OOO***@@@@@@@@@@@ooo&&&&&&&&&------&&&--------&&&&&&&&&&&&   ",
"&&&OOO***@@@@@@@@@@@ooo&&&&&&&&&------&&&--------&&&&&&&&&&&&   ",
"   &&&OOO@@@+++@@ooo&&&&&&&&&&&&&&&&&&&&&&&&&&&&&&&&&&&&&&&&&&&&",
"   &&&OOO@@@+++@@ooo&&&&&&&&&&&&&&&&&&&&&&&&&&&&&&&&&&&&&&&&&&&&",
"   &&&OOO@@@+++@@ooo&&&&&&&&&&&&&&&&&&&&&&&&&&&&&&&&&&&&&&&&&&&&",
"   &&&&&&oooooooo&&&&&&&&&&&&&&&&&&&&&&&&&&&&&&&&&&&&&&&&&&&&&&&",
"   &&&&&&oooooooo&&&&&&&&&&&&&&&&&&&&&&&&&&&&&&&&&&&&&&&&&&&&&&&",
"###&&&&&&&&&&&&&&&&&&&&&&&&&&&&&&&&&&&&&&&&&&&&&&&&&&&&&&&&&&###",
"###&&&&&&&&&&&&&&&&&&&&&&&&&&&&&&&&&&&&&&&&&&&&&&&&&&&&&&&&&&###",
"#########&&&#####&&&&&&#########&&&&&&&&&&&&&&&#################",
"#########&&&#####&&&&&&#########&&&&&&&&&&&&&&&#################",
"#########&&&#####&&&&&&#########++++++&&&+++OOO#################",
"#########&&&#####&&&&&&#########++++++&&&+++OOO#################",
"#########&&&#####&&&&&&#########++++++&&&+++OOO#################",
"#######################&&&&&&+++===***+++@@@@@@oo&&&&&&######   ",
"#######################&&&&&&+++===***+++@@@@@@oo&&&&&&######   ",
"   ######&&&&&&&&############OOO***@@@@@@@@@@@@oo############   ",
"   ######&&&&&&&&############OOO***@@@@@@@@@@@@oo############   ",
"   #############################OOO@@@+++@@@ooo##############   ",
"   #############################OOO@@@+++@@@ooo##############   ",
":::   #############################ooooooooo##############   :::",
":::   #############################ooooooooo##############   :::",
"::::::      #####################################         ::::::",
"::::::      #####################################         ::::::",
"::::::      #####################################         ::::::",
"::::::::::::                                     :::::::::::::::",
"::::::::::::                                     :::::::::::::::",
"::::::::::::::::::::...XXXXXXXXXXXXXXXXXX...::::::::::::::::::::",
"::::::::::::::::::::...XXXXXXXXXXXXXXXXXX...::::::::::::::::::::",
"::::::::::::::::::::...$$$XXXXXXXXXXXX$$$...::::::::::::::::::::",
"::::::::::::::::::::...$$$XXXXXXXXXXXX$$$...::::::::::::::::::::",
"::::::::::::::::::::...$$$$$$$$$$$$$$$$$$...::::::::::::::::::::",
"::::::::::::::::::::...$$$$$$$$$$$$$$$$$$...::::::::::::::::::::",
"::::::::::::::::::::...$$$%%%$$$%%%%%%%%%...::::::::::::::::::::",
"::::::::::::::::::::...$$$%%%$$$%%%%%%%%%...::::::::::::::::::::",
"::::::::::::::::::::...$$$%%%$$$%%%%%%%%%...::::::::::::::::::::",
":::::::::::::::::...%%%%%%%%%%%%%%%%%%%%%%%%...:::::::::::::::::",
":::::::::::::::::...%%%%%%%%%%%%%%%%%%%%%%%%...:::::::::::::::::",
"::::::::::::::::::::%%%%%%%%%%%%%%%%%%%%%%%%::::::::::::::::::::",
"::::::::::::::::::::%%%%%%%%%%%%%%%%%%%%%%%%::::::::::::::::::::"
};
